999
FreeCAD v2024.2 37240 (Git)
  0
SECTION
  2
HEADER
  9
$ACADVER
  1
AC1014
  9
$ACADMAINTVER
 70
     9
  9
$DWGCODEPAGE
  3
ANSI_1252
  9
$TEXTSTYLE
  7
STANDARD
  9
$DIMSTYLE
  2
STANDARD
  9
$DIMTXSTY
  7
STANDARD
  9
$CMLSTYLE
  2
STANDARD
  9
$LUNITS
 70
2
  9
$INSUNITS
 70
4
  9
$PEXTMAX
 10
50
 20
50
 30
50
  9
$PEXTMIN
 10
0
 20
0
 30
0
  9
$HANDSEED
  5
FFFF
  0
ENDSEC
  0
SECTION
  2
CLASSES
  0
CLASS
  1
ACDBDICTIONARYWDFLT
  2
AcDbDictionaryWithDefault
  3
ObjectDBX Classes
 90
        0
280
     0
281
     0
  0
CLASS
  1
XRECORD
  2
AcDbXrecord
  3
ObjectDBX Classes
 90
        0
280
     0
281
     0
  0
CLASS
  1
LWPOLYLINE
  2
AcDbPolyline
  3
ObjectDBX Classes
 90
        0
280
     0
281
     1
  0
ENDSEC
  0
SECTION
  2
TABLES
  0
TABLE
  2
VPORT
  5
20
330
0
100
AcDbSymbolTable
 70
     1
  0
VPORT
  5
21
330
20
100
AcDbSymbolTableRecord
100
AcDbViewportTableRecord
  2
*ACTIVE
 70
     0
  0
ENDTAB
  0
TABLE
  2
LTYPE
  5
22
330
0
100
AcDbSymbolTable
 70
     1
  0
LTYPE
  5
23
330
21
100
AcDbSymbolTableRecord
100
AcDbLinetypeTableRecord
  2
BYBLOCK
 70
     0
  3

 72
    65
 73
     0
 40
0.0
  0
LTYPE
  5
24
330
21
100
AcDbSymbolTableRecord
100
AcDbLinetypeTableRecord
  2
BYLAYER
 70
     0
  3

 72
    65
 73
     0
 40
0.0
  0
LTYPE
  5
25
330
21
100
AcDbSymbolTableRecord
100
AcDbLinetypeTableRecord
  2
CONTINUOUS
 70
     0
  3
Solid line
 72
    65
 73
     0
 40
0.0
  0
ENDTAB
  0
TABLE
  2
LAYER
  5
AF0
330
0
100
AcDbSymbolTable
 70
27
  0
LAYER
  5
AF1
330
AF0
100
AcDbSymbolTableRecord
100
AcDbLayerTableRecord
  2
0
 70
   0
 62
   7
  6
CONTINUOUS
  0
LAYER
  5
AF2
330
AF0
100
AcDbSymbolTableRecord
100
AcDbLayerTableRecord
  2
View
 70
    0
 62
    7
  6
CONTINUOUS
  0
LAYER
  5
AF3
330
AF0
100
AcDbSymbolTableRecord
100
AcDbLayerTableRecord
  2
ProjItem
 70
    0
 62
    7
  6
CONTINUOUS
  0
LAYER
  5
AF4
330
AF0
100
AcDbSymbolTableRecord
100
AcDbLayerTableRecord
  2
Detail
 70
    0
 62
    7
  6
CONTINUOUS
  0
LAYER
  5
AF5
330
AF0
100
AcDbSymbolTableRecord
100
AcDbLayerTableRecord
  2
Detail001
 70
    0
 62
    7
  6
CONTINUOUS
  0
LAYER
  5
AF6
330
AF0
100
AcDbSymbolTableRecord
100
AcDbLayerTableRecord
  2
Detail002
 70
    0
 62
    7
  6
CONTINUOUS
  0
LAYER
  5
AF7
330
AF0
100
AcDbSymbolTableRecord
100
AcDbLayerTableRecord
  2
Dimension
 70
    0
 62
    7
  6
CONTINUOUS
  0
LAYER
  5
AF8
330
AF0
100
AcDbSymbolTableRecord
100
AcDbLayerTableRecord
  2
Dimension002
 70
    0
 62
    7
  6
CONTINUOUS
  0
LAYER
  5
AF9
330
AF0
100
AcDbSymbolTableRecord
100
AcDbLayerTableRecord
  2
Dimension004
 70
    0
 62
    7
  6
CONTINUOUS
  0
LAYER
  5
AFA
330
AF0
100
AcDbSymbolTableRecord
100
AcDbLayerTableRecord
  2
Dimension008
 70
    0
 62
    7
  6
CONTINUOUS
  0
LAYER
  5
AFB
330
AF0
100
AcDbSymbolTableRecord
100
AcDbLayerTableRecord
  2
Dimension009
 70
    0
 62
    7
  6
CONTINUOUS
  0
LAYER
  5
AFC
330
AF0
100
AcDbSymbolTableRecord
100
AcDbLayerTableRecord
  2
Dimension010
 70
    0
 62
    7
  6
CONTINUOUS
  0
LAYER
  5
AFD
330
AF0
100
AcDbSymbolTableRecord
100
AcDbLayerTableRecord
  2
Dimension011
 70
    0
 62
    7
  6
CONTINUOUS
  0
LAYER
  5
AFE
330
AF0
100
AcDbSymbolTableRecord
100
AcDbLayerTableRecord
  2
Dimension012
 70
    0
 62
    7
  6
CONTINUOUS
  0
LAYER
  5
AFF
330
AF0
100
AcDbSymbolTableRecord
100
AcDbLayerTableRecord
  2
Dimension013
 70
    0
 62
    7
  6
CONTINUOUS
  0
LAYER
  5
B00
330
AF0
100
AcDbSymbolTableRecord
100
AcDbLayerTableRecord
  2
Dimension014
 70
    0
 62
    7
  6
CONTINUOUS
  0
LAYER
  5
B01
330
AF0
100
AcDbSymbolTableRecord
100
AcDbLayerTableRecord
  2
Dimension016
 70
    0
 62
    7
  6
CONTINUOUS
  0
LAYER
  5
B02
330
AF0
100
AcDbSymbolTableRecord
100
AcDbLayerTableRecord
  2
Dimension017
 70
    0
 62
    7
  6
CONTINUOUS
  0
LAYER
  5
B03
330
AF0
100
AcDbSymbolTableRecord
100
AcDbLayerTableRecord
  2
Dimension018
 70
    0
 62
    7
  6
CONTINUOUS
  0
LAYER
  5
B04
330
AF0
100
AcDbSymbolTableRecord
100
AcDbLayerTableRecord
  2
Dimension019
 70
    0
 62
    7
  6
CONTINUOUS
  0
LAYER
  5
B05
330
AF0
100
AcDbSymbolTableRecord
100
AcDbLayerTableRecord
  2
Dimension020
 70
    0
 62
    7
  6
CONTINUOUS
  0
LAYER
  5
B06
330
AF0
100
AcDbSymbolTableRecord
100
AcDbLayerTableRecord
  2
Dimension022
 70
    0
 62
    7
  6
CONTINUOUS
  0
LAYER
  5
B07
330
AF0
100
AcDbSymbolTableRecord
100
AcDbLayerTableRecord
  2
Dimension023
 70
    0
 62
    7
  6
CONTINUOUS
  0
LAYER
  5
B08
330
AF0
100
AcDbSymbolTableRecord
100
AcDbLayerTableRecord
  2
Dimension024
 70
    0
 62
    7
  6
CONTINUOUS
  0
LAYER
  5
B09
330
AF0
100
AcDbSymbolTableRecord
100
AcDbLayerTableRecord
  2
Dimension025
 70
    0
 62
    7
  6
CONTINUOUS
  0
LAYER
  5
B0A
330
AF0
100
AcDbSymbolTableRecord
100
AcDbLayerTableRecord
  2
Dimension027
 70
    0
 62
    7
  6
CONTINUOUS
  0
LAYER
  5
B0B
330
AF0
100
AcDbSymbolTableRecord
100
AcDbLayerTableRecord
  2
Dimension028
 70
    0
 62
    7
  6
CONTINUOUS
  0
ENDTAB
  0
TABLE
  2
STYLE
  5
70
330
0
100
AcDbSymbolTable
 70
     2
  0
STYLE
  5
71
330
70
100
AcDbSymbolTableRecord
100
AcDbTextStyleTableRecord
  2
STANDARD
 70
     0
 40
0.0
 41
1.0
 50
0.0
 71
     0
 42
2.5
  3
arial.ttf
  4

  0
STYLE
  5
72
330
70
100
AcDbSymbolTableRecord
100
AcDbTextStyleTableRecord
  2
ANNOTATIVE
 70
     0
 40
0.0
 41
1.0
 50
0.0
 71
     0
 42
2.5
  3
arial.ttf
  4

  0
ENDTAB
  0
TABLE
  2
VIEW
  5
73
330
0
100
AcDbSymbolTable
 70
     0
  0
ENDTAB
  0
TABLE
  2
UCS
  5
74
330
0
100
AcDbSymbolTable
 70
     0
  0
ENDTAB
  0
TABLE
  2
APPID
  5
75
330
0
100
AcDbSymbolTable
 70
     2
  0
APPID
  5
76
330
75
100
AcDbSymbolTableRecord
100
AcDbRegAppTableRecord
  2
ACAD
 70
     0
  0
APPID
  5
77
330
75
100
AcDbSymbolTableRecord
100
AcDbRegAppTableRecord
  2
ACADANNOTATIVE
 70
     0
  0
ENDTAB
  0
TABLE
  2
DIMSTYLE
  5
78
330
0
100
AcDbSymbolTable
 70
     2
  0
DIMSTYLE
105
79
330
78
100
AcDbSymbolTableRecord
100
AcDbDimStyleTableRecord
  2
STANDARD
 70
     0
  3

  4

  5

  6

  7

 40
0.0
 41
2.5
 42
0.625
 43
3.75
 44
1.25
 45
0.0
 46
0.0
 47
0.0
 48
0.0
140
2.5
141
2.5
142
0.0
143
0.03937007874016
144
1.0
145
0.0
146
1.0
147
0.625
 71
     0
 72
     0
 73
     0
 74
     0
 75
     0
 76
     0
 77
     1
 78
     8
170
     0
171
     3
172
     1
173
     0
174
     0
175
     0
176
     0
177
     0
178
     0
270
     2
271
     2
272
     2
273
     2
274
     3
340
71
275
     0
280
     0
281
     0
282
     0
283
     0
284
     8
285
     0
286
     0
287
     3
288
     0
  0
ENDTAB
  0
TABLE
  2
BLOCK_RECORD
  5
A01
330
0
100
AcDbSymbolTable
  70
5
  0
BLOCK_RECORD
  5
A02
330
A01
100
AcDbSymbolTableRecord
100
AcDbBlockTableRecord
  2
*MODEL_SPACE
  0
BLOCK_RECORD
  5
A03
330
A01
100
AcDbSymbolTableRecord
100
AcDbBlockTableRecord
  2
*PAPER_SPACE
  0
BLOCK_RECORD
  5
A2F
330
A01
100
AcDbSymbolTableRecord
100
AcDbBlockTableRecord
  2
*Dimension
  0
BLOCK_RECORD
  5
A37
330
A01
100
AcDbSymbolTableRecord
100
AcDbBlockTableRecord
  2
*Dimension002
  0
BLOCK_RECORD
  5
A3F
330
A01
100
AcDbSymbolTableRecord
100
AcDbBlockTableRecord
  2
*Dimension004
  0
BLOCK_RECORD
  5
A47
330
A01
100
AcDbSymbolTableRecord
100
AcDbBlockTableRecord
  2
*Dimension008
  0
BLOCK_RECORD
  5
A51
330
A01
100
AcDbSymbolTableRecord
100
AcDbBlockTableRecord
  2
*Dimension009
  0
BLOCK_RECORD
  5
A59
330
A01
100
AcDbSymbolTableRecord
100
AcDbBlockTableRecord
  2
*Dimension010
  0
BLOCK_RECORD
  5
A61
330
A01
100
AcDbSymbolTableRecord
100
AcDbBlockTableRecord
  2
*Dimension011
  0
BLOCK_RECORD
  5
A69
330
A01
100
AcDbSymbolTableRecord
100
AcDbBlockTableRecord
  2
*Dimension012
  0
BLOCK_RECORD
  5
A71
330
A01
100
AcDbSymbolTableRecord
100
AcDbBlockTableRecord
  2
*Dimension013
  0
BLOCK_RECORD
  5
A7B
330
A01
100
AcDbSymbolTableRecord
100
AcDbBlockTableRecord
  2
*Dimension014
  0
BLOCK_RECORD
  5
A85
330
A01
100
AcDbSymbolTableRecord
100
AcDbBlockTableRecord
  2
*Dimension016
  0
BLOCK_RECORD
  5
A8F
330
A01
100
AcDbSymbolTableRecord
100
AcDbBlockTableRecord
  2
*Dimension017
  0
BLOCK_RECORD
  5
A99
330
A01
100
AcDbSymbolTableRecord
100
AcDbBlockTableRecord
  2
*Dimension018
  0
BLOCK_RECORD
  5
AA3
330
A01
100
AcDbSymbolTableRecord
100
AcDbBlockTableRecord
  2
*Dimension019
  0
BLOCK_RECORD
  5
AAD
330
A01
100
AcDbSymbolTableRecord
100
AcDbBlockTableRecord
  2
*Dimension020
  0
BLOCK_RECORD
  5
AB7
330
A01
100
AcDbSymbolTableRecord
100
AcDbBlockTableRecord
  2
*Dimension022
  0
BLOCK_RECORD
  5
AC1
330
A01
100
AcDbSymbolTableRecord
100
AcDbBlockTableRecord
  2
*Dimension023
  0
BLOCK_RECORD
  5
ACB
330
A01
100
AcDbSymbolTableRecord
100
AcDbBlockTableRecord
  2
*Dimension024
  0
BLOCK_RECORD
  5
AD5
330
A01
100
AcDbSymbolTableRecord
100
AcDbBlockTableRecord
  2
*Dimension025
  0
BLOCK_RECORD
  5
ADF
330
A01
100
AcDbSymbolTableRecord
100
AcDbBlockTableRecord
  2
*Dimension027
  0
BLOCK_RECORD
  5
AE9
330
A01
100
AcDbSymbolTableRecord
100
AcDbBlockTableRecord
  2
*Dimension028
  0
ENDTAB
  0
ENDSEC
  0
SECTION
  2
BLOCKS
  0
BLOCK
  5
A04
330
A02
100
AcDbEntity
  8
0
100
AcDbBlockBegin
  2
*MODEL_SPACE
 70
   0
 10
0
 20
0
 30
0
  3
*MODEL_SPACE
  1
 
  0
ENDBLK
  5
A05
330
A02
100
AcDbEntity
  8
0
100
AcDbBlockEnd
  0
BLOCK
  5
A06
330
A03
100
AcDbEntity
 67
1
  8
0
100
AcDbBlockBegin
  2
*PAPER_SPACE
 70
   0
 10
0
 20
0
 30
0
  3
*PAPER_SPACE
  1
 
  0
ENDBLK
  5
A07
330
A03
100
AcDbEntity
 67
    1
  8
0
100
AcDbBlockEnd
  0
BLOCK
  5
A30
330
A2F
100
AcDbEntity
  8
Dimension
100
AcDbBlockBegin
  2
*Dimension
 70
   1
 10
0
 20
0
 30
0
  3
*Dimension
  1
 
  0
LINE
  5
A31
330
A2F
100
AcDbEntity
  8
Dimension
100
AcDbLine
 10
64.3557
 20
153.585
 30
0
 11
57.0903
 21
148.274
 31
0
  0
TEXT
  5
A32
330
A2F
100
AcDbEntity
  8
Dimension
100
AcDbText
 10
99.3877
 20
182.752
 30
0
 40
3.5
  1
⌀3
  7
STANDARD
 72
1
 11
99.3877
 21
182.752
 31
0
100
AcDbText
  0
SOLID
  5
A33
330
A2F
100
AcDbEntity
  8
0
 62
     0
100
AcDbTrace
 10
60.5653
 20
150.298
 30
0
 11
60.0735
 21
150.971
 31
0
 12
64.3557
 22
153.585
 32
0
 13
64.3557
 23
153.585
 33
0
  0
SOLID
  5
A34
330
A2F
100
AcDbEntity
  8
0
 62
     0
100
AcDbTrace
 10
61.3726
 20
150.888
 30
0
 11
60.8807
 21
151.561
 31
0
 12
57.0903
 22
148.274
 32
0
 13
57.0903
 23
148.274
 33
0
  0
ENDBLK
  5
A35
330
A2F
100
AcDbEntity
  8
Dimension
100
AcDbBlockEnd
  0
BLOCK
  5
A38
330
A37
100
AcDbEntity
  8
Dimension002
100
AcDbBlockBegin
  2
*Dimension002
 70
   1
 10
0
 20
0
 30
0
  3
*Dimension002
  1
 
  0
LINE
  5
A39
330
A37
100
AcDbEntity
  8
Dimension002
100
AcDbLine
 10
63.9986
 20
64.084
 30
0
 11
56.2245
 21
59.5494
 31
0
  0
TEXT
  5
A3A
330
A37
100
AcDbEntity
  8
Dimension002
100
AcDbText
 10
99.6047
 20
89.1847
 30
0
 40
3.5
  1
⌀3
  7
STANDARD
 72
1
 11
99.6047
 21
89.1847
 31
0
100
AcDbText
  0
SOLID
  5
A3B
330
A37
100
AcDbEntity
  8
0
 62
     0
100
AcDbTrace
 10
59.8896
 20
61.2049
 30
0
 11
59.4697
 21
61.9247
 31
0
 12
63.9986
 22
64.084
 32
0
 13
63.9986
 23
64.084
 33
0
  0
SOLID
  5
A3C
330
A37
100
AcDbEntity
  8
0
 62
     0
100
AcDbTrace
 10
60.7534
 20
61.7087
 30
0
 11
60.3335
 21
62.4285
 31
0
 12
56.2245
 22
59.5494
 32
0
 13
56.2245
 23
59.5494
 33
0
  0
ENDBLK
  5
A3D
330
A37
100
AcDbEntity
  8
Dimension002
100
AcDbBlockEnd
  0
BLOCK
  5
A40
330
A3F
100
AcDbEntity
  8
Dimension004
100
AcDbBlockBegin
  2
*Dimension004
 70
   1
 10
0
 20
0
 30
0
  3
*Dimension004
  1
 
  0
LINE
  5
A41
330
A3F
100
AcDbEntity
  8
Dimension004
100
AcDbLine
 10
269.643
 20
179.108
 30
0
 11
261.707
 21
173.023
 31
0
  0
TEXT
  5
A42
330
A3F
100
AcDbEntity
  8
Dimension004
100
AcDbText
 10
318.242
 20
218.397
 30
0
 40
3.5
  1
⌀40
  7
STANDARD
 72
1
 11
318.242
 21
218.397
 31
0
100
AcDbText
  0
SOLID
  5
A43
330
A3F
100
AcDbEntity
  8
0
 62
     0
100
AcDbTrace
 10
265.928
 20
175.735
 30
0
 11
265.421
 21
176.396
 31
0
 12
269.643
 22
179.108
 32
0
 13
269.643
 23
179.108
 33
0
  0
SOLID
  5
A44
330
A3F
100
AcDbEntity
  8
0
 62
     0
100
AcDbTrace
 10
265.928
 20
175.735
 30
0
 11
265.421
 21
176.396
 31
0
 12
261.707
 22
173.023
 32
0
 13
261.707
 23
173.023
 33
0
  0
ENDBLK
  5
A45
330
A3F
100
AcDbEntity
  8
Dimension004
100
AcDbBlockEnd
  0
BLOCK
  5
A48
330
A47
100
AcDbEntity
  8
Dimension008
100
AcDbBlockBegin
  2
*Dimension008
 70
   1
 10
0
 20
0
 30
0
  3
*Dimension008
  1
 
  0
LINE
  5
A49
330
A47
100
AcDbEntity
  8
Dimension008
100
AcDbLine
 10
184.881
 20
99.7418
 30
0
 11
130.655
 21
99.7418
 31
0
  0
LINE
  5
A4A
330
A47
100
AcDbEntity
  8
Dimension008
100
AcDbLine
 10
184.881
 20
220.492
 30
0
 11
130.655
 21
220.492
 31
0
  0
LINE
  5
A4B
330
A47
100
AcDbEntity
  8
Dimension008
100
AcDbLine
 10
130.655
 20
220.492
 30
0
 11
130.655
 21
99.7418
 31
0
  0
TEXT
  5
A4C
330
A47
100
AcDbEntity
  8
Dimension008
100
AcDbText
 10
125.655
 20
160.117
 30
0
 40
3.5
  1
483
  7
STANDARD
 72
1
 11
130.655
 21
160.117
 31
0
100
AcDbText
  0
SOLID
  5
A4D
330
A47
100
AcDbEntity
  8
0
 62
     0
100
AcDbTrace
 10
130.238
 20
225.492
 30
0
 11
131.071
 21
225.492
 31
0
 12
130.655
 22
220.492
 32
0
 13
130.655
 23
220.492
 33
0
  0
SOLID
  5
A4E
330
A47
100
AcDbEntity
  8
0
 62
     0
100
AcDbTrace
 10
130.238
 20
94.7418
 30
0
 11
131.071
 21
94.7418
 31
0
 12
130.655
 22
99.7418
 32
0
 13
130.655
 23
99.7418
 33
0
  0
ENDBLK
  5
A4F
330
A47
100
AcDbEntity
  8
Dimension008
100
AcDbBlockEnd
  0
BLOCK
  5
A52
330
A51
100
AcDbEntity
  8
Dimension009
100
AcDbBlockBegin
  2
*Dimension009
 70
   1
 10
0
 20
0
 30
0
  3
*Dimension009
  1
 
  0
LINE
  5
A53
330
A51
100
AcDbEntity
  8
Dimension009
100
AcDbLine
 10
220.567
 20
178.667
 30
0
 11
229.106
 21
173.464
 31
0
  0
TEXT
  5
A54
330
A51
100
AcDbEntity
  8
Dimension009
100
AcDbText
 10
167.425
 20
210.825
 30
0
 40
3.5
  1
⌀40
  7
STANDARD
 72
1
 11
167.425
 21
210.825
 31
0
100
AcDbText
  0
SOLID
  5
A55
330
A51
100
AcDbEntity
  8
0
 62
     0
100
AcDbTrace
 10
225.053
 20
176.421
 30
0
 11
224.62
 21
175.71
 31
0
 12
220.567
 22
178.667
 32
0
 13
220.567
 23
178.667
 33
0
  0
SOLID
  5
A56
330
A51
100
AcDbEntity
  8
0
 62
     0
100
AcDbTrace
 10
225.053
 20
176.421
 30
0
 11
224.62
 21
175.71
 31
0
 12
229.106
 22
173.464
 32
0
 13
229.106
 23
173.464
 33
0
  0
ENDBLK
  5
A57
330
A51
100
AcDbEntity
  8
Dimension009
100
AcDbBlockEnd
  0
BLOCK
  5
A5A
330
A59
100
AcDbEntity
  8
Dimension010
100
AcDbBlockBegin
  2
*Dimension010
 70
   1
 10
0
 20
0
 30
0
  3
*Dimension010
  1
 
  0
LINE
  5
A5B
330
A59
100
AcDbEntity
  8
Dimension010
100
AcDbLine
 10
220.376
 20
137.288
 30
0
 11
229.297
 21
132.769
 31
0
  0
TEXT
  5
A5C
330
A59
100
AcDbEntity
  8
Dimension010
100
AcDbText
 10
168.091
 20
164.838
 30
0
 40
3.5
  1
⌀40
  7
STANDARD
 72
1
 11
168.091
 21
164.838
 31
0
100
AcDbText
  0
SOLID
  5
A5D
330
A59
100
AcDbEntity
  8
0
 62
     0
100
AcDbTrace
 10
225.025
 20
135.4
 30
0
 11
224.648
 21
134.657
 31
0
 12
220.376
 22
137.288
 32
0
 13
220.376
 23
137.288
 33
0
  0
SOLID
  5
A5E
330
A59
100
AcDbEntity
  8
0
 62
     0
100
AcDbTrace
 10
225.025
 20
135.4
 30
0
 11
224.648
 21
134.657
 31
0
 12
229.297
 22
132.769
 32
0
 13
229.297
 23
132.769
 33
0
  0
ENDBLK
  5
A5F
330
A59
100
AcDbEntity
  8
Dimension010
100
AcDbBlockEnd
  0
BLOCK
  5
A62
330
A61
100
AcDbEntity
  8
Dimension011
100
AcDbBlockBegin
  2
*Dimension011
 70
   1
 10
0
 20
0
 30
0
  3
*Dimension011
  1
 
  0
LINE
  5
A63
330
A61
100
AcDbEntity
  8
Dimension011
100
AcDbLine
 10
269.632
 20
138.085
 30
0
 11
261.718
 21
131.971
 31
0
  0
TEXT
  5
A64
330
A61
100
AcDbEntity
  8
Dimension011
100
AcDbText
 10
319.787
 20
178.821
 30
0
 40
3.5
  1
⌀40
  7
STANDARD
 72
1
 11
319.787
 21
178.821
 31
0
100
AcDbText
  0
SOLID
  5
A65
330
A61
100
AcDbEntity
  8
0
 62
     0
100
AcDbTrace
 10
265.93
 20
134.699
 30
0
 11
265.42
 21
135.358
 31
0
 12
269.632
 22
138.085
 32
0
 13
269.632
 23
138.085
 33
0
  0
SOLID
  5
A66
330
A61
100
AcDbEntity
  8
0
 62
     0
100
AcDbTrace
 10
265.93
 20
134.699
 30
0
 11
265.42
 21
135.358
 31
0
 12
261.718
 22
131.971
 32
0
 13
261.718
 23
131.971
 33
0
  0
ENDBLK
  5
A67
330
A61
100
AcDbEntity
  8
Dimension011
100
AcDbBlockEnd
  0
BLOCK
  5
A6A
330
A69
100
AcDbEntity
  8
Dimension012
100
AcDbBlockBegin
  2
*Dimension012
 70
   1
 10
0
 20
0
 30
0
  3
*Dimension012
  1
 
  0
LINE
  5
A6B
330
A69
100
AcDbEntity
  8
Dimension012
100
AcDbLine
 10
248.734
 20
122.881
 30
0
 11
241.777
 21
130.064
 31
0
  0
TEXT
  5
A6C
330
A69
100
AcDbEntity
  8
Dimension012
100
AcDbText
 10
298.961
 20
85.6429
 30
0
 40
3.5
  1
⌀40
  7
STANDARD
 72
1
 11
298.961
 21
85.6429
 31
0
100
AcDbText
  0
SOLID
  5
A6D
330
A69
100
AcDbEntity
  8
0
 62
     0
100
AcDbTrace
 10
244.956
 20
126.182
 30
0
 11
245.555
 21
126.762
 31
0
 12
248.734
 22
122.881
 32
0
 13
248.734
 23
122.881
 33
0
  0
SOLID
  5
A6E
330
A69
100
AcDbEntity
  8
0
 62
     0
100
AcDbTrace
 10
244.956
 20
126.182
 30
0
 11
245.555
 21
126.762
 31
0
 12
241.777
 22
130.064
 32
0
 13
241.777
 23
130.064
 33
0
  0
ENDBLK
  5
A6F
330
A69
100
AcDbEntity
  8
Dimension012
100
AcDbBlockEnd
  0
BLOCK
  5
A72
330
A71
100
AcDbEntity
  8
Dimension013
100
AcDbBlockBegin
  2
*Dimension013
 70
   1
 10
0
 20
0
 30
0
  3
*Dimension013
  1
 
  0
LINE
  5
A73
330
A71
100
AcDbEntity
  8
Dimension013
100
AcDbLine
 10
361.381
 20
220.492
 30
0
 11
342.489
 21
232.255
 31
0
  0
LINE
  5
A74
330
A71
100
AcDbEntity
  8
Dimension013
100
AcDbLine
 10
360.631
 20
220.492
 30
0
 11
341.739
 21
232.255
 31
0
  0
LINE
  5
A75
330
A71
100
AcDbEntity
  8
Dimension013
100
AcDbLine
 10
341.739
 20
232.255
 30
0
 11
342.489
 21
232.255
 31
0
  0
TEXT
  5
A76
330
A71
100
AcDbEntity
  8
Dimension013
100
AcDbText
 10
341.739
 20
237.255
 30
0
 40
3.5
  1
3
  7
STANDARD
 72
1
 11
341.739
 21
232.255
 31
0
100
AcDbText
  0
SOLID
  5
A77
330
A71
100
AcDbEntity
  8
0
 62
     0
100
AcDbTrace
 10
347.093
 20
232.034
 30
0
 11
346.385
 21
232.475
 31
0
 12
341.739
 22
232.255
 32
0
 13
341.739
 23
232.255
 33
0
  0
SOLID
  5
A78
330
A71
100
AcDbEntity
  8
0
 62
     0
100
AcDbTrace
 10
337.843
 20
232.034
 30
0
 11
337.135
 21
232.475
 31
0
 12
342.489
 22
232.255
 32
0
 13
342.489
 23
232.255
 33
0
  0
ENDBLK
  5
A79
330
A71
100
AcDbEntity
  8
Dimension013
100
AcDbBlockEnd
  0
BLOCK
  5
A7C
330
A7B
100
AcDbEntity
  8
Dimension014
100
AcDbBlockBegin
  2
*Dimension014
 70
   1
 10
0
 20
0
 30
0
  3
*Dimension014
  1
 
  0
LINE
  5
A7D
330
A7B
100
AcDbEntity
  8
Dimension014
100
AcDbLine
 10
184.881
 20
99.7418
 30
0
 11
184.881
 21
278.339
 31
0
  0
LINE
  5
A7E
330
A7B
100
AcDbEntity
  8
Dimension014
100
AcDbLine
 10
305.631
 20
99.7418
 30
0
 11
305.631
 21
278.339
 31
0
  0
LINE
  5
A7F
330
A7B
100
AcDbEntity
  8
Dimension014
100
AcDbLine
 10
305.631
 20
278.339
 30
0
 11
184.881
 21
278.339
 31
0
  0
TEXT
  5
A80
330
A7B
100
AcDbEntity
  8
Dimension014
100
AcDbText
 10
245.256
 20
273.339
 30
0
 40
3.5
  1
483
  7
STANDARD
 72
1
 11
245.256
 21
278.339
 31
0
100
AcDbText
  0
SOLID
  5
A81
330
A7B
100
AcDbEntity
  8
0
 62
     0
100
AcDbTrace
 10
300.631
 20
277.923
 30
0
 11
300.631
 21
278.756
 31
0
 12
305.631
 22
278.339
 32
0
 13
305.631
 23
278.339
 33
0
  0
SOLID
  5
A82
330
A7B
100
AcDbEntity
  8
0
 62
     0
100
AcDbTrace
 10
189.881
 20
277.923
 30
0
 11
189.881
 21
278.756
 31
0
 12
184.881
 22
278.339
 32
0
 13
184.881
 23
278.339
 33
0
  0
ENDBLK
  5
A83
330
A7B
100
AcDbEntity
  8
Dimension014
100
AcDbBlockEnd
  0
BLOCK
  5
A86
330
A85
100
AcDbEntity
  8
Dimension016
100
AcDbBlockBegin
  2
*Dimension016
 70
   1
 10
0
 20
0
 30
0
  3
*Dimension016
  1
 
  0
LINE
  5
A87
330
A85
100
AcDbEntity
  8
Dimension016
100
AcDbLine
 10
265.675
 20
140.528
 30
0
 11
265.675
 21
256.285
 31
0
  0
LINE
  5
A88
330
A85
100
AcDbEntity
  8
Dimension016
100
AcDbLine
 10
184.881
 20
140.528
 30
0
 11
184.881
 21
256.285
 31
0
  0
LINE
  5
A89
330
A85
100
AcDbEntity
  8
Dimension016
100
AcDbLine
 10
184.881
 20
256.285
 30
0
 11
265.675
 21
256.285
 31
0
  0
TEXT
  5
A8A
330
A85
100
AcDbEntity
  8
Dimension016
100
AcDbText
 10
225.278
 20
261.285
 30
0
 40
3.5
  1
323.18
  7
STANDARD
 72
1
 11
225.278
 21
256.285
 31
0
100
AcDbText
  0
SOLID
  5
A8B
330
A85
100
AcDbEntity
  8
0
 62
     0
100
AcDbTrace
 10
189.881
 20
255.868
 30
0
 11
189.881
 21
256.701
 31
0
 12
184.881
 22
256.285
 32
0
 13
184.881
 23
256.285
 33
0
  0
SOLID
  5
A8C
330
A85
100
AcDbEntity
  8
0
 62
     0
100
AcDbTrace
 10
260.675
 20
255.868
 30
0
 11
260.675
 21
256.701
 31
0
 12
265.675
 22
256.285
 32
0
 13
265.675
 23
256.285
 33
0
  0
ENDBLK
  5
A8D
330
A85
100
AcDbEntity
  8
Dimension016
100
AcDbBlockEnd
  0
BLOCK
  5
A90
330
A8F
100
AcDbEntity
  8
Dimension017
100
AcDbBlockBegin
  2
*Dimension017
 70
   1
 10
0
 20
0
 30
0
  3
*Dimension017
  1
 
  0
LINE
  5
A91
330
A8F
100
AcDbEntity
  8
Dimension017
100
AcDbLine
 10
184.881
 20
140.528
 30
0
 11
184.881
 21
238.388
 31
0
  0
LINE
  5
A92
330
A8F
100
AcDbEntity
  8
Dimension017
100
AcDbLine
 10
224.836
 20
140.528
 30
0
 11
224.836
 21
238.388
 31
0
  0
LINE
  5
A93
330
A8F
100
AcDbEntity
  8
Dimension017
100
AcDbLine
 10
224.836
 20
238.388
 30
0
 11
184.881
 21
238.388
 31
0
  0
TEXT
  5
A94
330
A8F
100
AcDbEntity
  8
Dimension017
100
AcDbText
 10
204.858
 20
233.388
 30
0
 40
3.5
  1
159.82
  7
STANDARD
 72
1
 11
204.858
 21
238.388
 31
0
100
AcDbText
  0
SOLID
  5
A95
330
A8F
100
AcDbEntity
  8
0
 62
     0
100
AcDbTrace
 10
219.836
 20
237.971
 30
0
 11
219.836
 21
238.805
 31
0
 12
224.836
 22
238.388
 32
0
 13
224.836
 23
238.388
 33
0
  0
SOLID
  5
A96
330
A8F
100
AcDbEntity
  8
0
 62
     0
100
AcDbTrace
 10
189.881
 20
237.971
 30
0
 11
189.881
 21
238.805
 31
0
 12
184.881
 22
238.388
 32
0
 13
184.881
 23
238.388
 33
0
  0
ENDBLK
  5
A97
330
A8F
100
AcDbEntity
  8
Dimension017
100
AcDbBlockEnd
  0
BLOCK
  5
A9A
330
A99
100
AcDbEntity
  8
Dimension018
100
AcDbBlockBegin
  2
*Dimension018
 70
   1
 10
0
 20
0
 30
0
  3
*Dimension018
  1
 
  0
LINE
  5
A9B
330
A99
100
AcDbEntity
  8
Dimension018
100
AcDbLine
 10
271.175
 20
99.7418
 30
0
 11
150.693
 21
99.7418
 31
0
  0
LINE
  5
A9C
330
A99
100
AcDbEntity
  8
Dimension018
100
AcDbLine
 10
271.175
 20
176.066
 30
0
 11
150.693
 21
176.066
 31
0
  0
LINE
  5
A9D
330
A99
100
AcDbEntity
  8
Dimension018
100
AcDbLine
 10
150.693
 20
176.066
 30
0
 11
150.693
 21
99.7418
 31
0
  0
TEXT
  5
A9E
330
A99
100
AcDbEntity
  8
Dimension018
100
AcDbText
 10
145.693
 20
137.904
 30
0
 40
3.5
  1
305.3
  7
STANDARD
 72
1
 11
150.693
 21
137.904
 31
0
100
AcDbText
  0
SOLID
  5
A9F
330
A99
100
AcDbEntity
  8
0
 62
     0
100
AcDbTrace
 10
151.11
 20
171.066
 30
0
 11
150.277
 21
171.066
 31
0
 12
150.693
 22
176.066
 32
0
 13
150.693
 23
176.066
 33
0
  0
SOLID
  5
AA0
330
A99
100
AcDbEntity
  8
0
 62
     0
100
AcDbTrace
 10
151.11
 20
104.742
 30
0
 11
150.277
 21
104.742
 31
0
 12
150.693
 22
99.7418
 32
0
 13
150.693
 23
99.7418
 33
0
  0
ENDBLK
  5
AA1
330
A99
100
AcDbEntity
  8
Dimension018
100
AcDbBlockEnd
  0
BLOCK
  5
AA4
330
AA3
100
AcDbEntity
  8
Dimension019
100
AcDbBlockBegin
  2
*Dimension019
 70
   1
 10
0
 20
0
 30
0
  3
*Dimension019
  1
 
  0
LINE
  5
AA5
330
AA3
100
AcDbEntity
  8
Dimension019
100
AcDbLine
 10
271.175
 20
99.7418
 30
0
 11
340.55
 21
99.7418
 31
0
  0
LINE
  5
AA6
330
AA3
100
AcDbEntity
  8
Dimension019
100
AcDbLine
 10
271.175
 20
135.028
 30
0
 11
340.55
 21
135.028
 31
0
  0
LINE
  5
AA7
330
AA3
100
AcDbEntity
  8
Dimension019
100
AcDbLine
 10
340.55
 20
135.028
 30
0
 11
340.55
 21
99.7418
 31
0
  0
TEXT
  5
AA8
330
AA3
100
AcDbEntity
  8
Dimension019
100
AcDbText
 10
335.55
 20
121.515
 30
0
 40
3.5
  1
141.15
  7
STANDARD
 72
1
 11
340.55
 21
121.515
 31
0
100
AcDbText
  0
SOLID
  5
AA9
330
AA3
100
AcDbEntity
  8
0
 62
     0
100
AcDbTrace
 10
340.133
 20
130.028
 30
0
 11
340.967
 21
130.028
 31
0
 12
340.55
 22
135.028
 32
0
 13
340.55
 23
135.028
 33
0
  0
SOLID
  5
AAA
330
AA3
100
AcDbEntity
  8
0
 62
     0
100
AcDbTrace
 10
340.133
 20
104.742
 30
0
 11
340.967
 21
104.742
 31
0
 12
340.55
 22
99.7418
 32
0
 13
340.55
 23
99.7418
 33
0
  0
ENDBLK
  5
AAB
330
AA3
100
AcDbEntity
  8
Dimension019
100
AcDbBlockEnd
  0
BLOCK
  5
AAE
330
AAD
100
AcDbEntity
  8
Dimension020
100
AcDbBlockBegin
  2
*Dimension020
 70
   1
 10
0
 20
0
 30
0
  3
*Dimension020
  1
 
  0
LINE
  5
AAF
330
AAD
100
AcDbEntity
  8
Dimension020
100
AcDbLine
 10
184.881
 20
136.422
 30
0
 11
184.881
 21
248.973
 31
0
  0
LINE
  5
AB0
330
AAD
100
AcDbEntity
  8
Dimension020
100
AcDbLine
 10
245.256
 20
136.422
 30
0
 11
245.256
 21
248.973
 31
0
  0
LINE
  5
AB1
330
AAD
100
AcDbEntity
  8
Dimension020
100
AcDbLine
 10
245.256
 20
248.973
 30
0
 11
184.881
 21
248.973
 31
0
  0
TEXT
  5
AB2
330
AAD
100
AcDbEntity
  8
Dimension020
100
AcDbText
 10
215.068
 20
243.973
 30
0
 40
3.5
  1
241.5
  7
STANDARD
 72
1
 11
215.068
 21
248.973
 31
0
100
AcDbText
  0
SOLID
  5
AB3
330
AAD
100
AcDbEntity
  8
0
 62
     0
100
AcDbTrace
 10
240.256
 20
248.556
 30
0
 11
240.256
 21
249.389
 31
0
 12
245.256
 22
248.973
 32
0
 13
245.256
 23
248.973
 33
0
  0
SOLID
  5
AB4
330
AAD
100
AcDbEntity
  8
0
 62
     0
100
AcDbTrace
 10
189.881
 20
248.556
 30
0
 11
189.881
 21
249.389
 31
0
 12
184.881
 22
248.973
 32
0
 13
184.881
 23
248.973
 33
0
  0
ENDBLK
  5
AB5
330
AAD
100
AcDbEntity
  8
Dimension020
100
AcDbBlockEnd
  0
BLOCK
  5
AB8
330
AB7
100
AcDbEntity
  8
Dimension022
100
AcDbBlockBegin
  2
*Dimension022
 70
   1
 10
0
 20
0
 30
0
  3
*Dimension022
  1
 
  0
LINE
  5
AB9
330
AB7
100
AcDbEntity
  8
Dimension022
100
AcDbLine
 10
184.881
 20
123.117
 30
0
 11
184.881
 21
96.3938
 31
0
  0
LINE
  5
ABA
330
AB7
100
AcDbEntity
  8
Dimension022
100
AcDbLine
 10
232.514
 20
123.117
 30
0
 11
232.514
 21
96.3938
 31
0
  0
LINE
  5
ABB
330
AB7
100
AcDbEntity
  8
Dimension022
100
AcDbLine
 10
232.514
 20
96.3938
 30
0
 11
184.881
 21
96.3938
 31
0
  0
TEXT
  5
ABC
330
AB7
100
AcDbEntity
  8
Dimension022
100
AcDbText
 10
208.697
 20
91.3938
 30
0
 40
3.5
  1
190.53
  7
STANDARD
 72
1
 11
208.697
 21
96.3938
 31
0
100
AcDbText
  0
SOLID
  5
ABD
330
AB7
100
AcDbEntity
  8
0
 62
     0
100
AcDbTrace
 10
227.514
 20
96.8105
 30
0
 11
227.514
 21
95.9772
 31
0
 12
232.514
 22
96.3938
 32
0
 13
232.514
 23
96.3938
 33
0
  0
SOLID
  5
ABE
330
AB7
100
AcDbEntity
  8
0
 62
     0
100
AcDbTrace
 10
189.881
 20
96.8105
 30
0
 11
189.881
 21
95.9772
 31
0
 12
184.881
 22
96.3938
 32
0
 13
184.881
 23
96.3938
 33
0
  0
ENDBLK
  5
ABF
330
AB7
100
AcDbEntity
  8
Dimension022
100
AcDbBlockEnd
  0
BLOCK
  5
AC2
330
AC1
100
AcDbEntity
  8
Dimension023
100
AcDbBlockBegin
  2
*Dimension023
 70
   1
 10
0
 20
0
 30
0
  3
*Dimension023
  1
 
  0
LINE
  5
AC3
330
AC1
100
AcDbEntity
  8
Dimension023
100
AcDbLine
 10
184.881
 20
123.117
 30
0
 11
184.881
 21
82.9433
 31
0
  0
LINE
  5
AC4
330
AC1
100
AcDbEntity
  8
Dimension023
100
AcDbLine
 10
257.997
 20
123.117
 30
0
 11
257.997
 21
82.9433
 31
0
  0
LINE
  5
AC5
330
AC1
100
AcDbEntity
  8
Dimension023
100
AcDbLine
 10
257.997
 20
82.9433
 30
0
 11
184.881
 21
82.9433
 31
0
  0
TEXT
  5
AC6
330
AC1
100
AcDbEntity
  8
Dimension023
100
AcDbText
 10
221.439
 20
77.9433
 30
0
 40
3.5
  1
292.47
  7
STANDARD
 72
1
 11
221.439
 21
82.9433
 31
0
100
AcDbText
  0
SOLID
  5
AC7
330
AC1
100
AcDbEntity
  8
0
 62
     0
100
AcDbTrace
 10
252.997
 20
83.3599
 30
0
 11
252.997
 21
82.5266
 31
0
 12
257.997
 22
82.9433
 32
0
 13
257.997
 23
82.9433
 33
0
  0
SOLID
  5
AC8
330
AC1
100
AcDbEntity
  8
0
 62
     0
100
AcDbTrace
 10
189.881
 20
83.3599
 30
0
 11
189.881
 21
82.5266
 31
0
 12
184.881
 22
82.9433
 32
0
 13
184.881
 23
82.9433
 33
0
  0
ENDBLK
  5
AC9
330
AC1
100
AcDbEntity
  8
Dimension023
100
AcDbBlockEnd
  0
BLOCK
  5
ACC
330
ACB
100
AcDbEntity
  8
Dimension024
100
AcDbBlockBegin
  2
*Dimension024
 70
   1
 10
0
 20
0
 30
0
  3
*Dimension024
  1
 
  0
LINE
  5
ACD
330
ACB
100
AcDbEntity
  8
Dimension024
100
AcDbLine
 10
233.389
 20
99.7418
 30
0
 11
323.314
 21
99.7418
 31
0
  0
LINE
  5
ACE
330
ACB
100
AcDbEntity
  8
Dimension024
100
AcDbLine
 10
233.389
 20
122.242
 30
0
 11
323.314
 21
122.242
 31
0
  0
LINE
  5
ACF
330
ACB
100
AcDbEntity
  8
Dimension024
100
AcDbLine
 10
323.314
 20
122.242
 30
0
 11
323.314
 21
99.7418
 31
0
  0
TEXT
  5
AD0
330
ACB
100
AcDbEntity
  8
Dimension024
100
AcDbText
 10
318.314
 20
117.487
 30
0
 40
3.5
  1
90
  7
STANDARD
 72
1
 11
323.314
 21
117.487
 31
0
100
AcDbText
  0
SOLID
  5
AD1
330
ACB
100
AcDbEntity
  8
0
 62
     0
100
AcDbTrace
 10
322.897
 20
117.242
 30
0
 11
323.73
 21
117.242
 31
0
 12
323.314
 22
122.242
 32
0
 13
323.314
 23
122.242
 33
0
  0
SOLID
  5
AD2
330
ACB
100
AcDbEntity
  8
0
 62
     0
100
AcDbTrace
 10
322.897
 20
104.742
 30
0
 11
323.73
 21
104.742
 31
0
 12
323.314
 22
99.7418
 32
0
 13
323.314
 23
99.7418
 33
0
  0
ENDBLK
  5
AD3
330
ACB
100
AcDbEntity
  8
Dimension024
100
AcDbBlockEnd
  0
BLOCK
  5
AD6
330
AD5
100
AcDbEntity
  8
Dimension025
100
AcDbBlockBegin
  2
*Dimension025
 70
   1
 10
0
 20
0
 30
0
  3
*Dimension025
  1
 
  0
LINE
  5
AD7
330
AD5
100
AcDbEntity
  8
Dimension025
100
AcDbLine
 10
246.131
 20
99.7418
 30
0
 11
250.183
 21
215.458
 31
0
  0
LINE
  5
AD8
330
AD5
100
AcDbEntity
  8
Dimension025
100
AcDbLine
 10
246.131
 20
135.547
 30
0
 11
250.183
 21
251.263
 31
0
  0
LINE
  5
AD9
330
AD5
100
AcDbEntity
  8
Dimension025
100
AcDbLine
 10
250.183
 20
251.263
 30
0
 11
250.183
 21
215.458
 31
0
  0
TEXT
  5
ADA
330
AD5
100
AcDbEntity
  8
Dimension025
100
AcDbText
 10
245.183
 20
251.263
 30
0
 40
3.5
  1
143.22
  7
STANDARD
 72
1
 11
250.183
 21
251.263
 31
0
100
AcDbText
  0
SOLID
  5
ADB
330
AD5
100
AcDbEntity
  8
0
 62
     0
100
AcDbTrace
 10
250.168
 20
245.847
 30
0
 11
250.198
 21
246.68
 31
0
 12
250.183
 22
251.263
 32
0
 13
250.183
 23
251.263
 33
0
  0
SOLID
  5
ADC
330
AD5
100
AcDbEntity
  8
0
 62
     0
100
AcDbTrace
 10
250.168
 20
220.041
 30
0
 11
250.198
 21
220.874
 31
0
 12
250.183
 22
215.458
 32
0
 13
250.183
 23
215.458
 33
0
  0
ENDBLK
  5
ADD
330
AD5
100
AcDbEntity
  8
Dimension025
100
AcDbBlockEnd
  0
BLOCK
  5
AE0
330
ADF
100
AcDbEntity
  8
Dimension027
100
AcDbBlockBegin
  2
*Dimension027
 70
   1
 10
0
 20
0
 30
0
  3
*Dimension027
  1
 
  0
LINE
  5
AE1
330
ADF
100
AcDbEntity
  8
Dimension027
100
AcDbLine
 10
230.336
 20
99.7418
 30
0
 11
174.663
 21
99.7418
 31
0
  0
LINE
  5
AE2
330
ADF
100
AcDbEntity
  8
Dimension027
100
AcDbLine
 10
230.336
 20
135.028
 30
0
 11
174.663
 21
135.028
 31
0
  0
LINE
  5
AE3
330
ADF
100
AcDbEntity
  8
Dimension027
100
AcDbLine
 10
174.663
 20
135.028
 30
0
 11
174.663
 21
99.7418
 31
0
  0
TEXT
  5
AE4
330
ADF
100
AcDbEntity
  8
Dimension027
100
AcDbText
 10
169.663
 20
120.95
 30
0
 40
3.5
  1
141.15
  7
STANDARD
 72
1
 11
174.663
 21
120.95
 31
0
100
AcDbText
  0
SOLID
  5
AE5
330
ADF
100
AcDbEntity
  8
0
 62
     0
100
AcDbTrace
 10
175.079
 20
130.028
 30
0
 11
174.246
 21
130.028
 31
0
 12
174.663
 22
135.028
 32
0
 13
174.663
 23
135.028
 33
0
  0
SOLID
  5
AE6
330
ADF
100
AcDbEntity
  8
0
 62
     0
100
AcDbTrace
 10
175.079
 20
104.742
 30
0
 11
174.246
 21
104.742
 31
0
 12
174.663
 22
99.7418
 32
0
 13
174.663
 23
99.7418
 33
0
  0
ENDBLK
  5
AE7
330
ADF
100
AcDbEntity
  8
Dimension027
100
AcDbBlockEnd
  0
BLOCK
  5
AEA
330
AE9
100
AcDbEntity
  8
Dimension028
100
AcDbBlockBegin
  2
*Dimension028
 70
   1
 10
0
 20
0
 30
0
  3
*Dimension028
  1
 
  0
LINE
  5
AEB
330
AE9
100
AcDbEntity
  8
Dimension028
100
AcDbLine
 10
64.5536
 20
248.676
 30
0
 11
57.3142
 21
243.329
 31
0
  0
TEXT
  5
AEC
330
AE9
100
AcDbEntity
  8
Dimension028
100
AcDbText
 10
99.3077
 20
277.862
 30
0
 40
3.5
  1
⌀3
  7
STANDARD
 72
1
 11
99.3077
 21
277.862
 31
0
100
AcDbText
  0
SOLID
  5
AED
330
AE9
100
AcDbEntity
  8
0
 62
     0
100
AcDbTrace
 10
60.7793
 20
245.37
 30
0
 11
60.2842
 21
246.041
 31
0
 12
64.5536
 22
248.676
 32
0
 13
64.5536
 23
248.676
 33
0
  0
SOLID
  5
AEE
330
AE9
100
AcDbEntity
  8
0
 62
     0
100
AcDbTrace
 10
61.5836
 20
245.964
 30
0
 11
61.0885
 21
246.635
 31
0
 12
57.3142
 22
243.329
 32
0
 13
57.3142
 23
243.329
 33
0
  0
ENDBLK
  5
AEF
330
AE9
100
AcDbEntity
  8
Dimension028
100
AcDbBlockEnd
  0
ENDSEC
  0
SECTION
  2
ENTITIES
  0
LINE
  5
A08
330
A02
100
AcDbEntity
  8
View
100
AcDbLine
 10
184.880587533
 20
220.491786209
 30
0.000000000
 11
184.880587533
 21
99.741786209
 31
0.000000000
  0
LINE
  5
A09
330
A02
100
AcDbEntity
  8
View
100
AcDbLine
 10
184.880587533
 20
99.741786209
 30
0.000000000
 11
305.630587533
 21
99.741786209
 31
0.000000000
  0
LINE
  5
A0A
330
A02
100
AcDbEntity
  8
View
100
AcDbLine
 10
305.630587533
 20
99.741786209
 30
0.000000000
 11
305.630587533
 21
220.491786209
 31
0.000000000
  0
LINE
  5
A0B
330
A02
100
AcDbEntity
  8
View
100
AcDbLine
 10
305.630587533
 20
220.491786209
 30
0.000000000
 11
184.880587533
 21
220.491786209
 31
0.000000000
  0
CIRCLE
  5
A0C
330
A02
100
AcDbEntity
  8
View
100
AcDbCircle
 10
245.255587534
 20
126.472234016
 30
0.000000000
 40
5.000000000
  0
CIRCLE
  5
A0D
330
A02
100
AcDbEntity
  8
View
100
AcDbCircle
 10
224.836348981
 20
135.028287294
 30
0.000000000
 40
5.000000000
  0
CIRCLE
  5
A0E
330
A02
100
AcDbEntity
  8
View
100
AcDbCircle
 10
265.674826087
 20
135.028287294
 30
0.000000000
 40
5.000000000
  0
CIRCLE
  5
A0F
330
A02
100
AcDbEntity
  8
View
100
AcDbCircle
 10
265.674826087
 20
176.065667583
 30
0.000000000
 40
5.000000000
  0
CIRCLE
  5
A10
330
A02
100
AcDbEntity
  8
View
100
AcDbCircle
 10
224.836348981
 20
176.065667583
 30
0.000000000
 40
5.000000000
  0
CIRCLE
  5
A11
330
A02
100
AcDbEntity
  8
View
100
AcDbCircle
 10
245.255587533
 20
135.547099616
 30
0.000000000
 40
0.375000000
  0
CIRCLE
  5
A12
330
A02
100
AcDbEntity
  8
View
100
AcDbCircle
 10
232.513885606
 20
122.241764819
 30
0.000000000
 40
0.375000000
  0
CIRCLE
  5
A13
330
A02
100
AcDbEntity
  8
View
100
AcDbCircle
 10
257.997289460
 20
122.241764819
 30
0.000000000
 40
0.375000000
  0
LINE
  5
A14
330
A02
100
AcDbEntity
  8
View
100
AcDbLine
 10
230.336348981
 20
144.167904836
 30
0.000000000
 11
219.336348981
 21
144.167904836
 31
0.000000000
  0
LINE
  5
A15
330
A02
100
AcDbEntity
  8
View
100
AcDbLine
 10
224.836348981
 20
138.667904836
 30
0.000000000
 11
224.836348981
 21
149.667904836
 31
0.000000000
  0
LINE
  5
A16
330
A02
100
AcDbEntity
  8
View
100
AcDbLine
 10
271.174826087
 20
144.167904836
 30
0.000000000
 11
260.174826087
 21
144.167904836
 31
0.000000000
  0
LINE
  5
A17
330
A02
100
AcDbEntity
  8
View
100
AcDbLine
 10
265.674826087
 20
138.667904836
 30
0.000000000
 11
265.674826087
 21
149.667904836
 31
0.000000000
  0
LINE
  5
A18
330
A02
100
AcDbEntity
  8
View
100
AcDbLine
 10
271.174826087
 20
185.205285125
 30
0.000000000
 11
260.174826087
 21
185.205285125
 31
0.000000000
  0
LINE
  5
A19
330
A02
100
AcDbEntity
  8
View
100
AcDbLine
 10
265.674826087
 20
179.705285125
 30
0.000000000
 11
265.674826087
 21
190.705285125
 31
0.000000000
  0
LINE
  5
A1A
330
A02
100
AcDbEntity
  8
View
100
AcDbLine
 10
250.755587534
 20
193.761338403
 30
0.000000000
 11
239.755587534
 21
193.761338403
 31
0.000000000
  0
LINE
  5
A1B
330
A02
100
AcDbEntity
  8
View
100
AcDbLine
 10
245.255587534
 20
188.261338403
 30
0.000000000
 11
245.255587534
 21
199.261338403
 31
0.000000000
  0
LINE
  5
A1C
330
A02
100
AcDbEntity
  8
View
100
AcDbLine
 10
230.336348981
 20
185.205285125
 30
0.000000000
 11
219.336348981
 21
185.205285125
 31
0.000000000
  0
LINE
  5
A1D
330
A02
100
AcDbEntity
  8
View
100
AcDbLine
 10
224.836348981
 20
179.705285125
 30
0.000000000
 11
224.836348981
 21
190.705285125
 31
0.000000000
  0
LINE
  5
A1E
330
A02
100
AcDbEntity
  8
View
100
AcDbLine
 10
233.388885606
 20
197.991807600
 30
0.000000000
 11
231.638885606
 21
197.991807600
 31
0.000000000
  0
LINE
  5
A1F
330
A02
100
AcDbEntity
  8
View
100
AcDbLine
 10
232.513885606
 20
197.116807600
 30
0.000000000
 11
232.513885606
 21
198.866807600
 31
0.000000000
  0
LINE
  5
A20
330
A02
100
AcDbEntity
  8
View
100
AcDbLine
 10
246.130587533
 20
184.686472803
 30
0.000000000
 11
244.380587533
 21
184.686472803
 31
0.000000000
  0
LINE
  5
A21
330
A02
100
AcDbEntity
  8
View
100
AcDbLine
 10
245.255587533
 20
183.811472803
 30
0.000000000
 11
245.255587533
 21
185.561472803
 31
0.000000000
  0
LINE
  5
A22
330
A02
100
AcDbEntity
  8
View
100
AcDbLine
 10
258.872289460
 20
197.991807600
 30
0.000000000
 11
257.122289460
 21
197.991807600
 31
0.000000000
  0
LINE
  5
A23
330
A02
100
AcDbEntity
  8
View
100
AcDbLine
 10
257.997289460
 20
197.116807600
 30
0.000000000
 11
257.997289460
 21
198.866807600
 31
0.000000000
  0
LINE
  5
A24
330
A02
100
AcDbEntity
  8
ProjItem
100
AcDbLine
 10
361.380587533
 20
220.491786209
 30
0.000000000
 11
360.630587533
 21
220.491786209
 31
0.000000000
  0
LINE
  5
A25
330
A02
100
AcDbEntity
  8
ProjItem
100
AcDbLine
 10
361.380587533
 20
99.741786209
 30
0.000000000
 11
360.630587533
 21
99.741786209
 31
0.000000000
  0
LINE
  5
A26
330
A02
100
AcDbEntity
  8
ProjItem
100
AcDbLine
 10
361.380587533
 20
220.491786209
 30
0.000000000
 11
361.380587533
 21
99.741786209
 31
0.000000000
  0
LINE
  5
A27
330
A02
100
AcDbEntity
  8
ProjItem
100
AcDbLine
 10
360.630587533
 20
220.491786209
 30
0.000000000
 11
360.630587533
 21
99.741786209
 31
0.000000000
  0
CIRCLE
  5
A28
330
A02
100
AcDbEntity
  8
Detail
100
AcDbCircle
 10
60.315318767
 20
246.107780585
 30
0.000000000
 40
30.300000000
  0
CIRCLE
  5
A29
330
A02
100
AcDbEntity
  8
Detail
100
AcDbCircle
 10
60.933895644
 20
246.002523896
 30
0.000000000
 40
4.500000000
  0
CIRCLE
  5
A2A
330
A02
100
AcDbEntity
  8
Detail001
100
AcDbCircle
 10
60.315318767
 20
152.075800123
 30
0.000000000
 40
30.300000000
  0
CIRCLE
  5
A2B
330
A02
100
AcDbEntity
  8
Detail001
100
AcDbCircle
 10
60.723006141
 20
150.929501154
 30
0.000000000
 40
4.500000000
  0
CIRCLE
  5
A2C
330
A02
100
AcDbEntity
  8
Detail002
100
AcDbCircle
 10
60.315318767
 20
60.662152882
 30
0.000000000
 40
30.300000000
  0
CIRCLE
  5
A2D
330
A02
100
AcDbEntity
  8
Detail002
100
AcDbCircle
 10
60.111551122
 20
61.816699595
 30
0.000000000
 40
4.500000000
  0
DIMENSION
  5
A2E
330
A02
100
AcDbEntity
  8
Dimension
100
AcDbDimension
  2
*Dimension
 10
64.355734205
 20
153.585303634
 30
0.000000000
 11
99.387660767
 21
182.751923123
 31
0.000000000
 70
3
  1
⌀3
  3
STANDARD
100
AcDbDiametricDimension
 15
57.090278077
 25
148.273698675
 35
0.000000000
 40
0
  0
DIMENSION
  5
A36
330
A02
100
AcDbEntity
  8
Dimension002
100
AcDbDimension
  2
*Dimension002
 10
63.998601174
 20
64.084042069
 30
0.000000000
 11
99.604683767
 21
89.184698882
 31
0.000000000
 70
3
  1
⌀3
  3
STANDARD
100
AcDbDiametricDimension
 15
56.224501070
 25
59.549357121
 35
0.000000000
 40
0
  0
DIMENSION
  5
A3E
330
A02
100
AcDbEntity
  8
Dimension004
100
AcDbDimension
  2
*Dimension004
 10
269.642721284
 20
179.108003480
 30
0.000000000
 11
318.241903533
 21
218.397426209
 31
0.000000000
 70
3
  1
⌀40
  3
STANDARD
100
AcDbDiametricDimension
 15
261.706930891
 25
173.023331685
 35
0.000000000
 40
0
  0
DIMENSION
  5
A46
330
A02
100
AcDbEntity
  8
Dimension008
100
AcDbDimension
  2
*Dimension008
 10
130.654623533
 20
160.116786209
 30
0.000000000
 11
125.654623533
 21
160.116786209
 31
0.000000000
 70
32
  1
483
  3
STANDARD
100
AcDbAlignedDimension
 13
184.880587533
 23
220.491786209
 33
0.000000000
 14
184.880587533
 24
99.741786209
 34
0.000000000
 50
90
100
AcDbRotatedDimension
  0
DIMENSION
  5
A50
330
A02
100
AcDbEntity
  8
Dimension009
100
AcDbDimension
  2
*Dimension009
 10
220.566602116
 20
178.667448072
 30
0.000000000
 11
167.424819533
 21
210.824937209
 31
0.000000000
 70
3
  1
⌀40
  3
STANDARD
100
AcDbDiametricDimension
 15
229.106095845
 25
173.463887094
 35
0.000000000
 40
0
  0
DIMENSION
  5
A58
330
A02
100
AcDbEntity
  8
Dimension010
100
AcDbDimension
  2
*Dimension010
 10
220.376139894
 20
137.288051640
 30
0.000000000
 11
168.091189533
 21
164.837654209
 31
0.000000000
 70
3
  1
⌀40
  3
STANDARD
100
AcDbDiametricDimension
 15
229.296558068
 25
132.768522949
 35
0.000000000
 40
0
  0
DIMENSION
  5
A60
330
A02
100
AcDbEntity
  8
Dimension011
100
AcDbDimension
  2
*Dimension011
 10
269.631507480
 20
138.085192977
 30
0.000000000
 11
319.786977533
 21
178.820572209
 31
0.000000000
 70
3
  1
⌀40
  3
STANDARD
100
AcDbDiametricDimension
 15
261.718144695
 25
131.971381611
 35
0.000000000
 40
0
  0
DIMENSION
  5
A68
330
A02
100
AcDbEntity
  8
Dimension012
100
AcDbDimension
  2
*Dimension012
 10
248.734148869
 20
122.880631166
 30
0.000000000
 11
298.960885533
 21
85.642921209
 31
0.000000000
 70
3
  1
⌀40
  3
STANDARD
100
AcDbDiametricDimension
 15
241.777026198
 25
130.063836866
 35
0.000000000
 40
0
  0
DIMENSION
  5
A70
330
A02
100
AcDbEntity
  8
Dimension013
100
AcDbDimension
  2
*Dimension013
 10
341.739097533
 20
232.254695209
 30
0.000000000
 11
341.739097533
 21
237.254695209
 31
0.000000000
 70
1
  1
3
  3
STANDARD
100
AcDbAlignedDimension
 13
360.630587533
 23
220.491786209
 33
0.000000000
 14
361.380587533
 24
220.491786209
 34
0.000000000
  0
DIMENSION
  5
A7A
330
A02
100
AcDbEntity
  8
Dimension014
100
AcDbDimension
  2
*Dimension014
 10
245.255587533
 20
278.339308209
 30
0.000000000
 11
245.255587533
 21
273.339308209
 31
0.000000000
 70
1
  1
483
  3
STANDARD
100
AcDbAlignedDimension
 13
305.630587533
 23
99.741786209
 33
0.000000000
 14
184.880587533
 24
99.741786209
 34
0.000000000
  0
DIMENSION
  5
A84
330
A02
100
AcDbEntity
  8
Dimension016
100
AcDbDimension
  2
*Dimension016
 10
225.277706533
 20
256.284816209
 30
0.000000000
 11
225.277706533
 21
261.284816209
 31
0.000000000
 70
1
  1
323.18
  3
STANDARD
100
AcDbAlignedDimension
 13
184.880587533
 23
140.528287294
 33
0.000000000
 14
265.674826087
 24
140.528287294
 34
0.000000000
  0
DIMENSION
  5
A8E
330
A02
100
AcDbEntity
  8
Dimension017
100
AcDbDimension
  2
*Dimension017
 10
204.858468533
 20
238.388051209
 30
0.000000000
 11
204.858468533
 21
233.388051209
 31
0.000000000
 70
1
  1
159.82
  3
STANDARD
100
AcDbAlignedDimension
 13
224.836348981
 23
140.528287294
 33
0.000000000
 14
184.880587533
 24
140.528287294
 34
0.000000000
  0
DIMENSION
  5
A98
330
A02
100
AcDbEntity
  8
Dimension018
100
AcDbDimension
  2
*Dimension018
 10
150.693404533
 20
137.903727209
 30
0.000000000
 11
145.693404533
 21
137.903727209
 31
0.000000000
 70
1
  1
305.3
  3
STANDARD
100
AcDbAlignedDimension
 13
271.174826087
 23
176.065667583
 33
0.000000000
 14
271.174826087
 24
99.741786209
 34
0.000000000
  0
DIMENSION
  5
AA2
330
A02
100
AcDbEntity
  8
Dimension019
100
AcDbDimension
  2
*Dimension019
 10
340.549929533
 20
121.514848209
 30
0.000000000
 11
335.549929533
 21
121.514848209
 31
0.000000000
 70
1
  1
141.15
  3
STANDARD
100
AcDbAlignedDimension
 13
271.174826087
 23
135.028287294
 33
0.000000000
 14
271.174826087
 24
99.741786209
 34
0.000000000
  0
DIMENSION
  5
AAC
330
A02
100
AcDbEntity
  8
Dimension020
100
AcDbDimension
  2
*Dimension020
 10
215.068087533
 20
248.972792209
 30
0.000000000
 11
215.068087533
 21
243.972792209
 31
0.000000000
 70
1
  1
241.5
  3
STANDARD
100
AcDbAlignedDimension
 13
245.255587533
 23
136.422099616
 33
0.000000000
 14
184.880587533
 24
136.422099616
 34
0.000000000
  0
DIMENSION
  5
AB6
330
A02
100
AcDbEntity
  8
Dimension022
100
AcDbDimension
  2
*Dimension022
 10
208.697236533
 20
96.393831209
 30
0.000000000
 11
208.697236533
 21
91.393831209
 31
0.000000000
 70
1
  1
190.53
  3
STANDARD
100
AcDbAlignedDimension
 13
232.513885606
 23
123.116764819
 33
0.000000000
 14
184.880587533
 24
123.116764819
 34
0.000000000
  0
DIMENSION
  5
AC0
330
A02
100
AcDbEntity
  8
Dimension023
100
AcDbDimension
  2
*Dimension023
 10
221.438938533
 20
82.943275209
 30
0.000000000
 11
221.438938533
 21
77.943275209
 31
0.000000000
 70
1
  1
292.47
  3
STANDARD
100
AcDbAlignedDimension
 13
257.997289460
 23
123.116764819
 33
0.000000000
 14
184.880587533
 24
123.116764819
 34
0.000000000
  0
DIMENSION
  5
ACA
330
A02
100
AcDbEntity
  8
Dimension024
100
AcDbDimension
  2
*Dimension024
 10
323.313540533
 20
117.487083209
 30
0.000000000
 11
318.313540533
 21
117.487083209
 31
0.000000000
 70
1
  1
90
  3
STANDARD
100
AcDbAlignedDimension
 13
233.388885606
 23
122.241764819
 33
0.000000000
 14
233.388885606
 24
99.741786209
 34
0.000000000
  0
DIMENSION
  5
AD4
330
A02
100
AcDbEntity
  8
Dimension025
100
AcDbDimension
  2
*Dimension025
 10
250.182988533
 20
251.263099209
 30
0.000000000
 11
245.182988533
 21
251.263099209
 31
0.000000000
 70
1
  1
143.22
  3
STANDARD
100
AcDbAlignedDimension
 13
246.130587533
 23
135.547099616
 33
0.000000000
 14
246.130587533
 24
99.741786209
 34
0.000000000
  0
DIMENSION
  5
ADE
330
A02
100
AcDbEntity
  8
Dimension027
100
AcDbDimension
  2
*Dimension027
 10
174.662698533
 20
120.950493209
 30
0.000000000
 11
169.662698533
 21
120.950493209
 31
0.000000000
 70
1
  1
141.15
  3
STANDARD
100
AcDbAlignedDimension
 13
230.336348981
 23
135.028287294
 33
0.000000000
 14
230.336348981
 24
99.741786209
 34
0.000000000
  0
DIMENSION
  5
AE8
330
A02
100
AcDbEntity
  8
Dimension028
100
AcDbDimension
  2
*Dimension028
 10
64.553599367
 20
248.676050586
 30
0.000000000
 11
99.307734767
 21
277.861665585
 31
0.000000000
 70
3
  1
⌀3
  3
STANDARD
100
AcDbDiametricDimension
 15
57.314191922
 25
243.328997207
 35
0.000000000
 40
0
  0
ENDSEC
  0
SECTION
  2
OBJECTS
  0
DICTIONARY
  5
F000
330
0
100
AcDbDictionary
  3
ACAD_GROUP
350
F001
  0
DICTIONARY
  5
F001
330
F000
100
AcDbDictionary
  0
ENDSEC
  0
EOF